<?xml version="1.0" encoding="utf-8"?>
<svg id="Слой_1" data-name="Слой 1" viewBox="0 0 735.8 447.1" xmlns="http://www.w3.org/2000/svg">
  <defs>
    <style>.cls-1{fill:#a0616a;}.cls-2{fill:none;stroke:#e6e6e6;stroke-linecap:round;stroke-linejoin:round;stroke-width:2px;}.cls-3{fill:#2f2e41;}.cls-4{fill:#e6e6e6;}.cls-5{fill:#6c63ff;}.cls-6{fill:#3f3d56;}.cls-7{fill:#7e7cad;}.cls-8{fill:#f2f2f2;}</style>
  </defs>
  <path id="b-5" class="cls-1" d="M 474.691 123.469 C 463.691 125.869 456.091 133.469 457.591 140.469 C 459.091 147.469 469.291 151.169 480.191 148.769 C 484.6 147.888 488.722 145.93 492.191 143.069 L 538.491 132.269 L 532.991 110.669 L 487.891 123.669 C 483.576 122.503 479.039 122.434 474.691 123.469 Z" transform="matrix(-1, 0, 0, -1, 995.89328, 260.169106)"/>
  <path class="cls-2" d="M 524.296 119.2 C 524.296 119.2 526.327 115.446 525.921 107.71" style="" transform="matrix(-1, 0, 0, -1, 1050.270691, 226.909996)"/>
  <path class="cls-2" d="M 515.5 111.327 C 515.417 111.779 515.362 116.576 516.828 119.2" style="" transform="matrix(-1, 0, 0, -1, 1032.293152, 230.527)"/>
  <line class="cls-2" x1="520.902" y1="119.2" x2="520.002" y2="107.7" transform="matrix(-1, 0, 0, -1, 1040.903992, 226.899994)"/>
  <path class="cls-3" d="M 525.602 117.3 L 514.702 117.3 C 513.597 117.3 512.702 118.195 512.702 119.3 L 512.702 125.2 C 512.702 126.305 513.597 127.2 514.702 127.2 L 525.602 127.2 C 526.707 127.2 527.602 126.305 527.602 125.2 L 527.602 119.3 C 527.602 118.195 526.707 117.3 525.602 117.3 Z" transform="matrix(-1, 0, 0, -1, 1040.304016, 244.5)"/>
  <path class="cls-4" d="M 527.702 142.107 L 527.702 127.707 C 527.21 127.591 526.707 127.524 526.202 127.507 C 524.31 127.294 522.406 127.193 520.502 127.207 C 518.395 127.167 516.288 127.301 514.202 127.607 C 513.602 127.707 513.102 127.807 512.702 127.907 L 512.702 142.207 C 512.679 143.064 513.004 143.893 513.602 144.507 C 514.185 145.13 514.507 145.953 514.502 146.807 L 514.502 148.107 L 525.702 148.107 L 525.702 146.807 C 525.679 145.95 526.004 145.12 526.602 144.507 C 527.32 143.92 527.726 143.034 527.702 142.107 Z" transform="matrix(-1, 0, 0, -1, 1040.40387, 275.307098)"/>
  <path class="cls-5" d="M 526.102 146.105 L 526.102 132.905 C 524.21 132.691 522.306 132.591 520.402 132.605 C 518.295 132.565 516.187 132.699 514.102 133.005 L 514.102 144.905 C 514.102 145.605 515.002 148.005 517.102 148.105 C 520.302 148.205 520.602 144.905 523.402 144.905 C 524.436 144.884 525.425 145.323 526.102 146.105 Z" transform="matrix(-1, 0, 0, -1, 1040.203979, 280.705322)"/>
  <path class="cls-4" d="M 497.802 157.949 L 501.102 120.749 C 501.102 120.749 470.602 119.949 454.302 117.449 C 438.002 114.949 333.102 144.749 333.102 144.749 L 348.302 170.049 L 463.002 151.249 L 497.802 157.949 Z" transform="matrix(-1, 0, 0, -1, 834.203979, 287.349052)"/>
  <path class="cls-3" d="M 537.322 194.91 C 536.164 194.915 535.227 195.852 535.222 197.01 L 535.222 208.1 C 535.228 209.256 536.166 210.19 537.322 210.19 C 538.474 210.185 539.407 209.252 539.412 208.1 L 539.412 197 C 539.407 195.848 538.474 194.915 537.322 194.91 Z" transform="matrix(-1, 0, 0, -1, 1074.633972, 405.100006)"/>
  <path class="cls-3" d="M 504.212 194.91 C 503.056 194.916 502.122 195.854 502.122 197.01 L 502.122 208.1 C 502.127 209.252 503.06 210.185 504.212 210.19 C 505.368 210.19 506.306 209.256 506.312 208.1 L 506.312 197 C 506.306 195.844 505.368 194.91 504.212 194.91 Z" transform="matrix(-1, 0, 0, -1, 1008.434021, 405.100006)"/>
  <path class="cls-6" d="M 531.972 181.06 L 509.032 181.06 C 507.375 181.06 506.032 182.533 506.032 184.349 L 506.032 185.271 C 506.032 187.086 507.375 188.56 509.032 188.56 L 531.972 188.56 C 533.629 188.56 534.972 187.086 534.972 185.271 L 534.972 184.349 C 534.972 182.533 533.629 181.06 531.972 181.06 Z" style="" transform="matrix(-1, 0, 0, -1, 1041.003998, 369.619995)"/>
  <path class="cls-6" d="M 507.962 179.12 L 507.912 180.9 C 509.042 181.09 510.252 181.26 511.522 181.4 L 511.522 177.4 L 511.652 177.4 C 514.496 177.693 517.353 177.837 520.212 177.83 C 523.081 177.839 525.949 177.692 528.802 177.39 L 528.802 181.29 L 529.152 181.35 C 530.632 181.18 532.022 180.98 533.312 180.74 L 533.312 167.85 L 533.382 142.35 L 507.962 142.35 L 507.962 179.12 Z" transform="matrix(-1, 0, 0, -1, 1041.294006, 323.75)"/>
  <path class="cls-6" d="M 538.302 168.84 L 534.273 168.84 C 533.503 168.84 532.93 169.48 532.93 170.29 C 532.93 170.29 532.802 172.57 532.802 173.29 C 532.802 174.01 532.93 176.29 532.93 176.29 C 532.93 177.11 533.503 177.74 534.273 177.74 L 538.302 177.74 L 538.302 168.84 Z" transform="matrix(-1, 0, 0, -1, 1071.104004, 346.580002)"/>
  <path class="cls-6" d="M 503.012 168.84 L 507.032 168.84 C 507.735 168.84 508.372 169.48 508.372 170.29 C 508.372 170.29 508.512 172.57 508.512 173.29 C 508.512 174.01 508.372 176.29 508.372 176.29 C 508.372 177.11 507.808 177.74 507.032 177.74 L 503.012 177.74 L 503.012 168.84 Z" style="" transform="matrix(-1, 0, 0, -1, 1011.523987, 346.580002)"/>
  <circle class="cls-7" cx="515.531" cy="154.13" r="1.15"/>
  <circle class="cls-7" cx="515.531" cy="158.53" r="1.15"/>
  <circle class="cls-7" cx="515.531" cy="162.82" r="1.15"/>
  <path class="cls-7" d="M 522.861 152.87 C 521.943 152.893 521.059 153.224 520.351 153.81 C 520.351 153.81 520.241 152.87 518.981 152.87 C 518.237 152.886 517.637 153.486 517.621 154.23 L 517.621 162.82 C 517.637 163.564 518.237 164.164 518.981 164.18 C 519.729 164.169 520.335 163.568 520.351 162.82 L 520.351 160.1 C 521.042 160.713 521.937 161.048 522.861 161.04 C 525.051 160.969 526.776 159.15 526.731 156.96 C 526.755 154.776 525.043 152.967 522.861 152.87 Z M 522.021 158.95 C 520.996 158.946 520.184 158.083 520.241 157.06 C 520.224 156.052 521.013 155.213 522.021 155.17 C 523.046 155.174 523.858 156.037 523.801 157.06 C 523.846 158.088 523.049 158.957 522.021 159 L 522.021 158.95 Z"/>
  <path class="cls-6" d="M 536.682 187.67 L 504.742 187.67 C 503.402 187.647 502.309 188.74 502.332 190.08 L 502.332 192.91 C 502.309 194.25 503.402 195.343 504.742 195.32 L 536.682 195.32 C 538.022 195.343 539.115 194.25 539.092 192.91 L 539.092 190.08 C 539.109 188.742 538.02 187.653 536.682 187.67 Z" transform="matrix(-1, 0, 0, -1, 1041.423981, 382.990005)"/>
  <path class="cls-6" d="M 539.881 196.99 L 501.251 196.99 C 499.601 196.99 498.341 198.57 498.341 200.63 L 498.341 204.9 C 498.341 206.96 499.601 208.54 501.251 208.54 L 539.881 208.54 C 541.521 208.54 542.791 206.96 542.791 204.9 L 542.791 200.63 C 542.996 198.82 541.691 197.189 539.881 196.99 Z" transform="matrix(-1, 0, 0, -1, 1041.153198, 405.529999)"/>
  <path class="cls-6" d="M 541.502 199.71 L 499.802 199.71 C 498.983 199.693 498.315 200.361 498.332 201.18 C 498.315 201.999 498.983 202.667 499.802 202.65 L 541.502 202.65 C 542.321 202.667 542.989 201.999 542.972 201.18 C 542.989 200.361 542.321 199.693 541.502 199.71 Z" transform="matrix(-1, 0, 0, -1, 1041.303986, 402.360001)"/>
  <path class="cls-3" d="M 540.698 197.306 L 500.798 197.306 C 500.163 197.298 499.649 196.612 499.638 195.757 C 499.649 194.903 500.163 194.215 500.798 194.208 L 540.698 194.208 C 541.331 194.216 541.843 194.905 541.848 195.757 C 541.96 196.668 541.374 197.456 540.698 197.306 Z" style="" transform="matrix(-1, 0, 0, -1, 1041.499817, 391.532425)"/>
  <circle class="cls-7" cx="-520.632" cy="173.28" r="5.4" transform="matrix(-1, 0, 0, 1, 0, 0)"/>
  <circle class="cls-6" cx="-520.632" cy="173.28" r="4" transform="matrix(-1, 0, 0, 1, 0, 0)"/>
  <ellipse class="cls-6" cx="-505.802" cy="173.4" rx="2.23" ry="3.99" transform="matrix(-1, 0, 0, 1, 0, 0)"/>
  <path class="cls-6" d="M 194.463 230.699 L 175.263 230.699 L 175.163 230.799 C 171.708 234.461 170.188 239.541 171.063 244.499 C 171.365 246.09 171.869 247.636 172.563 249.099 L 178.463 260.499 L 176.163 301.499 C 176.116 302.233 176.369 302.954 176.863 303.499 C 177.357 304.089 178.094 304.42 178.863 304.399 L 182.463 304.399 C 183.922 304.416 185.125 303.258 185.163 301.799 L 186.763 261.299 L 194.863 248.599 C 195.528 247.518 196.097 246.38 196.563 245.199 C 198.158 240.629 197.568 235.579 194.963 231.499 L 194.463 230.699 L 194.463 230.699 Z" transform="matrix(-1, 0, 0, -1, 368.265045, 535.098938)"/>
  <path class="cls-5" d="M 192.725 290.104 C 192.559 289.814 192.259 289.626 191.925 289.604 L 177.325 289.604 C 177.056 289.575 176.791 289.689 176.625 289.904 C 174.158 292.652 173.025 296.345 173.525 300.004 C 173.542 300.402 173.833 300.734 174.225 300.804 C 177.723 301.685 181.318 302.122 184.925 302.104 C 187.811 302.109 190.69 301.841 193.525 301.304 C 193.893 301.22 194.193 300.957 194.325 300.604 C 195.347 297.038 194.763 293.204 192.725 290.104 L 192.725 290.104 Z" transform="matrix(-1, 0, 0, -1, 368.226852, 591.704102)"/>
  <path class="cls-6" d="M 734.8 311.098 L 1 311.098 C 0.23 311.098 -0.251 311.931 0.134 312.598 C 0.313 312.907 0.643 313.098 1 313.098 L 734.8 313.098 C 735.367 313.136 735.838 312.665 735.8 312.098 C 735.8 311.546 735.352 311.098 734.8 311.098 Z" transform="matrix(-1, 0, 0, -1, 735.800573, 624.19812)"/>
  <polygon class="cls-1" points="395.002 119.1 401.002 78.1 353.002 73.1 356.002 126.1 395.002 119.1" transform="matrix(-1, 0, 0, -1, 754.004028, 199.199997)"/>
  <circle class="cls-1" cx="-404.602" cy="59.9" r="32.4" transform="matrix(-1, 0, 0, 1, 0, 0)"/>
  <path id="c-6" class="cls-1" d="M 485.761 261.989 C 476.561 270.189 464.861 272.089 459.461 266.089 C 454.061 260.089 457.161 248.689 466.261 240.489 C 469.908 237.167 474.297 234.767 479.061 233.489 L 518.261 199.189 L 534.461 218.289 L 494.061 250.089 C 492.34 254.691 489.485 258.784 485.761 261.989 L 485.761 261.989 Z" transform="matrix(-1, 0, 0, -1, 991.262726, 468.788818)"/>
  <path class="cls-4" d="M 366.002 440.1 L 415.002 447.1 L 444.002 425.1 L 447.002 304.1 L 475.002 111.1 L 289.002 109.1 C 289.002 109.1 303.002 234.1 310.002 241.1 C 317.002 248.1 322.002 280.1 322.002 280.1 L 336.002 418.1 L 366.002 440.1 Z" transform="matrix(-1, 0, 0, -1, 764.004028, 556.199997)"/>
  <path class="cls-4" d="M 506.342 292.239 C 506.342 292.239 480.342 294.239 474.342 276.239 C 468.342 258.239 461.342 199.239 461.342 199.239 L 445.342 197.239 L 431.342 212.239 L 416.342 176.239 C 416.342 176.239 469.342 118.239 489.342 144.239 C 509.342 170.239 506.342 292.239 506.342 292.239 Z" transform="matrix(-1, 0, 0, -1, 922.84375, 429.839096)"/>
  <path class="cls-3" d="M 408.537 0.034 C 408.537 0.034 382.537 14.034 385.537 35.034 C 388.537 56.034 407.537 61.034 394.537 85.034 C 381.537 109.034 388.537 137.034 388.537 137.034 L 385.337 142.034 C 385.337 142.034 359.037 132.034 350.837 142.034 C 342.637 152.034 346.637 161.034 334.637 163.034 C 322.637 165.034 306.637 185.034 314.637 198.034 C 322.637 211.034 321.637 219.034 334.637 221.034 C 347.637 223.034 378.637 237.034 383.637 227.034 C 388.637 217.034 405.637 206.034 402.637 196.034 C 399.637 186.034 399.637 153.934 399.637 153.934 C 399.637 153.934 442.137 137.034 435.937 121.534 C 429.737 106.034 418.637 106.034 428.637 76.034 C 438.637 46.034 408.537 0.034 408.537 0.034 Z" transform="matrix(-1, 0, 0, -1, 749.038605, 230.633643)"/>
  <path class="cls-4" d="M 153.002 249.097 C 150.948 249.083 148.899 249.318 146.902 249.797 C 145.002 250.297 144.102 251.097 144.102 251.997 L 147.602 295.897 L 145.802 304.197 C 145.451 305.257 145.813 306.422 146.702 307.097 C 146.855 307.178 147.029 307.213 147.202 307.197 L 158.802 306.997 C 159.602 306.997 160.202 305.897 160.202 304.697 C 160.218 304.459 160.184 304.221 160.102 303.997 L 158.502 295.897 L 162.002 251.997 C 161.802 249.797 156.302 249.097 153.002 249.097 Z" transform="matrix(-1, 0, 0, -1, 306.104004, 556.29718)"/>
  <path class="cls-4" d="M 217.702 249.097 C 215.648 249.083 213.6 249.318 211.602 249.797 C 209.702 250.297 208.802 251.097 208.802 251.997 L 212.302 295.897 L 210.502 304.197 C 210.151 305.257 210.513 306.422 211.402 307.097 C 211.556 307.178 211.729 307.213 211.902 307.197 L 223.502 306.997 C 224.302 306.997 224.902 305.897 224.902 304.697 C 224.918 304.459 224.884 304.221 224.802 303.997 L 223.202 295.897 L 226.702 251.997 C 226.602 249.797 221.002 249.097 217.702 249.097 Z" transform="matrix(-1, 0, 0, -1, 435.503998, 556.29718)"/>
  <path class="cls-8" d="M 245.902 273.5 L 228.102 273.5 L 228.102 303.4 L 245.902 303.4 C 247.932 303.432 249.57 305.07 249.602 307.1 C 249.608 309.146 247.948 310.806 245.902 310.8 L 121.702 310.8 C 119.672 310.768 118.034 309.13 118.002 307.1 C 117.997 305.054 119.656 303.394 121.702 303.4 L 136.902 303.4 L 136.902 273.5 L 121.702 273.5 C 119.672 273.468 118.034 271.83 118.002 269.8 C 117.997 267.754 119.656 266.094 121.702 266.1 L 245.902 266.1 C 247.932 266.132 249.57 267.77 249.602 269.8 C 249.608 271.846 247.948 273.506 245.902 273.5 Z M 144.202 273.5 L 152.602 295.8 L 220.802 303.4 L 220.802 273.5 L 144.202 273.5 Z" transform="matrix(-1, 0, 0, -1, 367.604019, 576.899994)"/>
</svg>