<?xml version="1.0" encoding="utf-8"?>
<svg data-name="Layer 1" width="815.79361" height="574.50844" viewBox="0 0 815.79361 574.50844" xmlns="http://www.w3.org/2000/svg">
  <circle cx="464.162" cy="261.381" r="26" fill="#6c63ff"/>
  <path d="M314.89681,196.93578v247.62a22.71737,22.71737,0,0,0,22.69,22.69h647.62a22.71738,22.71738,0,0,0,22.69-22.69v-247.62a22.71738,22.71738,0,0,0-22.69-22.69h-647.62A22.71737,22.71737,0,0,0,314.89681,196.93578Zm2,0a20.69,20.69,0,0,1,20.69-20.69H850.22126a155.67555,155.67555,0,0,1,155.67555,155.67554V444.55578a20.69,20.69,0,0,1-20.69,20.69h-647.62a20.69,20.69,0,0,1-20.69-20.69Z" transform="translate(-192.10319 -162.74578)" fill="#3f3d56"/>
  <polygon points="130.261 555.88 144.768 555.879 151.669 499.923 130.258 499.925 130.261 555.88" fill="#ffb6b6"/>
  <path d="M321.85331,733.75953l44.61057-.0017v-.56411a17.36462,17.36462,0,0,0-17.36368-17.36341h-.00107l-8.14867-6.182-15.20364,6.183-3.89422.00009Z" transform="translate(-192.10319 -162.74578)" fill="#2f2e41"/>
  <polygon points="66.979 555.88 81.486 555.879 88.387 499.923 66.976 499.925 66.979 555.88" fill="#ffb6b6"/>
  <path d="M258.57178,733.75953l44.61057-.0017v-.56411a17.36463,17.36463,0,0,0-17.36368-17.36341h-.00107l-8.14867-6.182-15.20364,6.183-3.89423.00009Z" transform="translate(-192.10319 -162.74578)" fill="#2f2e41"/>
  <path d="M358.4847,413.73855s13.95767,42.86862,11.38135,48.51083-6.97188,1.24666-2.57632,5.64222,8.23265-.27689,4.11632,7.18749-10.3524,68.91369-13.09511,71.88833-6.51375,3.05444-3.163,5.94491,7.74627-2.97028,3.35071,2.89047-16.05937,141.06171-16.05937,141.06171H319.65391s-5.67493-6.54142-2.46254-10.79854-.282-5.89808,0-8.74057-.78643-8.971-.9848-11.76748-4.0491-69.417,5.20219-107.90088l-16.86958-73.27716L284.1044,572.94511s9.39994,74.28765,0,98.169c0,0,7.57843,6.31069,4.2174,9.96789s-6.2914.72682-3.361,3.6572-4.39556,13.18668-4.39556,13.18668L255.657,696.46072,241.55894,557.657s-2.3766-14.47561,0-16.95605,2.3766,6.31069,2.3766-2.48043v-11.7215s1.37658-72.0941,1.56014-76.33968,17.76579-35.01451,17.76579-35.01451Z" transform="translate(-192.10319 -162.74578)" fill="#2f2e41"/>
  <path d="M358.27681,265.67577v84.53a81.249,81.249,0,0,0-4.17,25.38c.09,14.37,3.25,30.93,3.24,38.17a9.45671,9.45671,0,0,1-.31,2.85c-13.99,40.55-88.02,3.7-94.75.25-.32-.16-.49-.25-.49-.25l1.46-45.42-.25-13.06-1.73-89.59,1.55-1.24,13.58-10.83,1.33-1.06,4.08,5.95,36.37-2.5,13.88-3.84,4.33,1.76,19.52,7.94Z" transform="translate(-192.10319 -162.74578)" fill="#6c63ff"/>
  <path d="M485.0315,332.10117l-25.48732-8.42665L452.699,337.56271l27.26378,7.95039a8.98633,8.98633,0,1,0,5.06873-13.41193Z" transform="translate(-192.10319 -162.74578)" fill="#ffb6b6"/>
  <path d="M333.58807,257.45351l-.1056.42189c-1.99167,7.9676-4.53442,30.72543.91434,36.87038,6.997,7.901,63.51687,32.02112,74.745,30.056,8.70858-1.52413,6.91566-1.01243,11.08222,3.32234s-2.74914,5.34721,6.545,6.10572,9.47947-2.80053,11.47006,1.14635.21963,6.32533,6.545,6.10572,7.911.961,10.0869,1.34887S470.71,349.695,470.71,349.695s5.48109-15.63659,12.37961-21.59122c0,0-15.82194-1.922-17.01973-5.2786s-.21963-6.32537-4.369-5.71789-6.30823,5.16186-5.73505-.57319S426.649,299.63437,426.649,299.63437C408.61047,281.87419,371.54924,269.53562,333.58807,257.45351Z" transform="translate(-192.10319 -162.74578)" fill="#6c63ff"/>
  <path d="M252.72341,433.99657l-1.15612-26.81931-15.41287-1.47713,2.23122,28.31155a8.98634,8.98634,0,1,0,14.33777-.01511Z" transform="translate(-192.10319 -162.74578)" fill="#ffb6b6"/>
  <path d="M268.83485,265.92573l-.43192.05082A24.89043,24.89043,0,0,0,249.276,279.13581c-4.90733,9.34358-20.43214,72.62753-16.63084,81.31222,3.545,8.0991,3.39835,6.10755.8222,11.54022s-5.97452-.675-3.38892,8.28443,5.9792,7.871,2.99434,11.1315-5.83665,2.44774-3.38892,8.28443,1.90589,7.73785,2.31464,9.91-.80336,17.2438-.80336,17.2438,16.56414-.4182,24.57761,3.92131c0,0-3.81184-15.47572-1.09787-17.78566s5.83669-2.44777,3.79767-6.11231-7.06294-4.0686-1.49717-5.56576,5.409-33.40389,5.409-33.40389Z" transform="translate(-192.10319 -162.74578)" fill="#6c63ff"/>
  <path d="M308.54683,231.74578c-.65.15-1.3.28-1.95.38a27.10211,27.10211,0,0,1-6.01.31,28.36587,28.36587,0,1,1,28.98-35.44c.06.23.12.45.17.68A28.37691,28.37691,0,0,1,308.54683,231.74578Z" transform="translate(-192.10319 -162.74578)" fill="#ffb6b6"/>
  <path d="M282.36476,228.39815c-3.94555-3.08783-4.32854-8.97352-7.6955-12.68371-5.6294-6.20321-8.27423-12.877-5.32535-20.22729,2.60826-6.5011,2.05387-14.49254,7.67133-18.67721-2.759-.99874-3.40824-3.07282-.97389-3.11112,1.64162-.02582,7.76142,3.11169,4.81671-.79681s2.62942-2.36573,2.26071-3.96561-2.73287-2.486-3.77557-1.2178c3.329-3.90061,10.59878-3.069,12.9609,1.48261,3.318-4.97272,6.84005-8.39442,11.91732-5.23874,4.98668,3.09935,4.92149,6.93058,10.28394,6.00983,2.521-.43283,2.75915,4.33,4.48133,6.2212s4.23965,3.35488,6.753,2.8799,4.43526-3.60718,3.02689-5.7424l5.92379,13.51424,2.38742-2.92841c3.79356,2.47227,2.54757,8.92338-1.271,11.3568s-11.10621-3.191-13.17847.83489c-3.2666,6.34619-10.92969,3.1416-16.19239-1.34327-6.38183-5.439-14.08486,11.09835-11.01065,18.89891-3.18976-3.13222-9.09048-.53286-10.7429,3.621s-.44076,8.83381.78417,13.13321Z" transform="translate(-192.10319 -162.74578)" fill="#2f2e41"/>
  <path d="M676.52226,321.77291H646.50453a2.9411,2.9411,0,0,1-2.9378-2.9378V289.18359a2.9411,2.9411,0,0,1,2.9378-2.93781h30.01773a2.9411,2.9411,0,0,1,2.9378,2.93781v29.65152A2.9411,2.9411,0,0,1,676.52226,321.77291Z" transform="translate(-192.10319 -162.74578)" fill="#f2f2f2"/>
  <path d="M681.51975,324.27166H651.502a2.9411,2.9411,0,0,1-2.93781-2.93781V291.68233a2.9411,2.9411,0,0,1,2.93781-2.9378h30.01772a2.94111,2.94111,0,0,1,2.93781,2.9378v29.65152A2.94111,2.94111,0,0,1,681.51975,324.27166Z" transform="translate(-192.10319 -162.74578)" fill="#f2f2f2"/>
  <path d="M647.13362,287.12108a2.69159,2.69159,0,0,0-2.69158,2.69159V318.206a2.69159,2.69159,0,0,0,2.69158,2.69159h18.355a13.096,13.096,0,0,0,13.096-13.096V289.81267a2.6916,2.6916,0,0,0-2.69159-2.69159Z" transform="translate(-192.10319 -162.74578)" fill="#fff"/>
  <path d="M669.553,295.738H653.41087a.55849.55849,0,1,1,0-1.117H669.553a.55849.55849,0,0,1,0,1.117Z" transform="translate(-192.10319 -162.74578)" fill="#f2f2f2"/>
  <path d="M669.553,307.64758H653.41087a.55849.55849,0,1,1,0-1.117H669.553a.55849.55849,0,0,1,0,1.117Z" transform="translate(-192.10319 -162.74578)" fill="#f2f2f2"/>
  <path d="M676.108,301.69668H646.8559a.55849.55849,0,1,1,0-1.117H676.108a.55849.55849,0,0,1,0,1.117Z" transform="translate(-192.10319 -162.74578)" fill="#f2f2f2"/>
  <path d="M676.40665,312.49H665.83924a.55849.55849,0,1,1,0-1.117h10.56741a.55849.55849,0,0,1,0,1.117Z" transform="translate(-192.10319 -162.74578)" fill="#f2f2f2"/>
  <path d="M 425.944 177.589 L 425.748 177.396 C 414.301 166.135 401.918 166.145 387.891 177.427 L 387.515 175.573 C 401.742 164.131 414.333 164.076 425.997 175.411 C 442.412 162.981 452.964 141.914 457.364 112.787 L 458.327 113.363 C 453.813 143.237 442.987 164.794 426.149 177.435 L 425.944 177.589 Z" fill="#f2f2f2" style=""/>
  <path d="M681.01367,340.33447l-.3916-.18359c-22.38672-10.50293-47.043-10.49317-75.37695.03223l-.69727-1.875c28.69531-10.65967,53.73535-10.71143,76.53027-.15137,36.57129-14.61231,57.56641-35.64258,62.40918-62.51319l1.96875.3545c-4.99218,27.69384-26.53808,49.28613-64.04,64.17675Z" transform="translate(-192.10319 -162.74578)" fill="#f2f2f2"/>
  <path d="M755.89941,339.27051l-.24707-.10645c-18.44629-7.92968-42.44531-7.91308-75.52148.05371l-.46875-1.94433c33.37109-8.03711,57.70019-8.05664,76.53125-.05274,37.37891-4.5708,57.75586-25.02392,62.28516-62.52l1.98632.24024c-4.668,38.63379-25.70019,59.666-64.29882,64.29736Z" transform="translate(-192.10319 -162.74578)" fill="#f2f2f2"/>
  <circle cx="465.79361" cy="109.5" r="8" fill="#6c63ff"/>
  <circle cx="555.79361" cy="109.5" r="8" fill="#6c63ff"/>
  <circle cx="627.79361" cy="108.5" r="8" fill="#6c63ff"/>
  <path d="M782.52226,317.77291H752.50453a2.9411,2.9411,0,0,1-2.9378-2.9378V285.18359a2.9411,2.9411,0,0,1,2.9378-2.93781h30.01773a2.9411,2.9411,0,0,1,2.9378,2.93781v29.65152A2.9411,2.9411,0,0,1,782.52226,317.77291Z" transform="translate(-192.10319 -162.74578)" fill="#f2f2f2"/>
  <path d="M787.51975,320.27166H757.502a2.9411,2.9411,0,0,1-2.93781-2.93781V287.68233a2.9411,2.9411,0,0,1,2.93781-2.9378h30.01772a2.94111,2.94111,0,0,1,2.93781,2.9378v29.65152A2.94111,2.94111,0,0,1,787.51975,320.27166Z" transform="translate(-192.10319 -162.74578)" fill="#f2f2f2"/>
  <path d="M753.13362,283.12108a2.69159,2.69159,0,0,0-2.69158,2.69159V314.206a2.69159,2.69159,0,0,0,2.69158,2.69159h18.355a13.096,13.096,0,0,0,13.096-13.096V285.81267a2.6916,2.6916,0,0,0-2.69159-2.69159Z" transform="translate(-192.10319 -162.74578)" fill="#fff"/>
  <path d="M775.553,291.738H759.41087a.55849.55849,0,1,1,0-1.117H775.553a.55849.55849,0,0,1,0,1.117Z" transform="translate(-192.10319 -162.74578)" fill="#f2f2f2"/>
  <path d="M775.553,303.64758H759.41087a.55849.55849,0,1,1,0-1.117H775.553a.55849.55849,0,0,1,0,1.117Z" transform="translate(-192.10319 -162.74578)" fill="#f2f2f2"/>
  <path d="M782.108,297.69668H752.8559a.55849.55849,0,1,1,0-1.117H782.108a.55849.55849,0,0,1,0,1.117Z" transform="translate(-192.10319 -162.74578)" fill="#f2f2f2"/>
  <path d="M782.40665,308.49H771.83924a.55849.55849,0,1,1,0-1.117h10.56741a.55849.55849,0,0,1,0,1.117Z" transform="translate(-192.10319 -162.74578)" fill="#f2f2f2"/>
  <path d="M438.41328,719.92127a2.26935,2.26935,0,0,1-1.64469-3.93333l.1555-.61819q-.03071-.07428-.06179-.1484a6.09416,6.09416,0,0,0-11.24138.04177c-1.83859,4.42817-4.17942,8.86389-4.7558,13.54594a18.02893,18.02893,0,0,0,.31649,6.20047,72.28134,72.28134,0,0,1-6.57515-30.02077,69.766,69.766,0,0,1,.43274-7.78294q.3585-3.17781.99471-6.31034A73.11887,73.11887,0,0,1,430.534,659.90586a19.459,19.459,0,0,0,8.093-8.39652,14.84338,14.84338,0,0,0,1.34991-4.05618c-.394.05168-1.48556-5.94866-1.1884-6.31679-.54906-.83317-1.53178-1.24733-2.13144-2.06035-2.98232-4.0434-7.0912-3.33741-9.2362,2.15727-4.58224,2.31266-4.6266,6.14806-1.815,9.83683,1.78878,2.34681,2.03456,5.52233,3.60409,8.03478-.16151.20671-.32945.40695-.4909.61366a73.59114,73.59114,0,0,0-7.681,12.16859,30.59255,30.59255,0,0,0-1.82641-14.20958c-1.74819-4.21732-5.02491-7.76915-7.91045-11.415a6.27922,6.27922,0,0,0-11.184,3.08333q-.00886.08063-.01731.1612.6429.36267,1.25864.76991a3.0782,3.0782,0,0,1-1.24107,5.60175l-.06277.00967a30.62827,30.62827,0,0,0,.80734,4.57938c-3.70179,14.31578,4.29011,19.52989,15.70147,19.76412.25191.12916.49739.25832.74929.38109a75.11456,75.11456,0,0,0-4.04326,19.02779,71.24446,71.24446,0,0,0,.05167,11.50322l-.01938-.13562a18.82569,18.82569,0,0,0-6.4266-10.87028c-4.94561-4.06263-11.93283-5.55868-17.26826-8.82425a3.533,3.533,0,0,0-5.41121,3.43708l.02182.14261a20.67715,20.67715,0,0,1,2.31871,1.11733q.64288.36276,1.25864.76992a3.07824,3.07824,0,0,1-1.24108,5.6018l-.06282.00964c-.04519.00646-.084.01295-.12911.01944a30.65467,30.65467,0,0,0,5.63854,8.82923c2.31464,12.49712,12.256,13.68282,22.89023,10.04353h.00648a75.09193,75.09193,0,0,0,5.0444,14.72621h18.02018c.06464-.20022.12274-.40693.1809-.60717a20.47436,20.47436,0,0,1-4.9863-.297c1.337-1.64058,2.674-3.29409,4.011-4.93462a1.11749,1.11749,0,0,0,.084-.09689c.67817-.8396,1.36282-1.67283,2.041-2.51246l.00036-.001a29.99038,29.99038,0,0,0-.87875-7.63984Z" transform="translate(-192.10319 -162.74578)" fill="#f2f2f2"/>
  <path d="M192.10319,736.06422a1.18647,1.18647,0,0,0,1.19007,1.19h253.29a1.19,1.19,0,1,0,0-2.38h-253.29A1.18651,1.18651,0,0,0,192.10319,736.06422Z" transform="translate(-192.10319 -162.74578)" fill="#ccc"/>
  <path d="M300.58681,232.43578l6.01-.31A27.10211,27.10211,0,0,1,300.58681,232.43578Z" transform="translate(-192.10319 -162.74578)" fill="#f2f2f2"/>
  <polygon points="144.294 94.03 143.304 95.29 140.644 98.67 117.674 127.88 84.304 93.72 85.634 92.66 92.714 77.61 129.084 75.11 139.964 92.27 144.294 94.03" fill="#3f3d56"/>
  <line class="cls-2" x1="557.487" y1="187.771" x2="556.587" y2="176.271" style="paint-order: fill; fill: rgba(119, 119, 119, 0.31);" transform="matrix(-1, 0, 0, -1, 1114.073975, 364.041992)"/>
  <path class="cls-6" d="M 391.19 197.155 L 337.123 197.155 C 333.218 197.155 330.053 200.627 330.053 204.906 L 330.053 207.08 C 330.053 211.358 333.218 214.832 337.123 214.832 L 391.19 214.832 C 395.096 214.832 398.26 211.358 398.26 207.08 L 398.26 204.906 C 398.26 200.627 395.096 197.155 391.19 197.155 Z" style="paint-order: fill; fill: rgba(119, 119, 119, 0.13);" transform="matrix(-1, 0, 0, -1, 728.313019, 411.987)"/>
  <path class="cls-6" d="M 334.601 194.582 L 334.483 198.777 C 337.147 199.225 339.998 199.626 342.993 199.955 L 342.993 190.529 L 343.298 190.529 C 350 191.219 356.734 191.558 363.473 191.543 C 370.235 191.563 376.994 191.217 383.718 190.505 L 383.718 199.696 L 384.543 199.838 C 388.031 199.438 391.307 198.966 394.348 198.401 L 394.348 168.021 L 394.513 107.921 L 334.601 107.921 L 334.601 194.582 Z" style="paint-order: fill; fill: rgba(119, 119, 119, 0.17);" transform="matrix(-1, 0, 0, -1, 728.996002, 307.875999)"/>
  <path class="cls-6" d="M 409.369 170.354 L 399.873 170.354 C 398.058 170.354 396.708 171.863 396.708 173.771 C 396.708 173.771 396.406 179.145 396.406 180.842 C 396.406 182.539 396.708 187.913 396.708 187.913 C 396.708 189.845 398.058 191.33 399.873 191.33 L 409.369 191.33 L 409.369 170.354 Z" style="paint-order: fill; fill: rgba(119, 119, 119, 0.22);" transform="matrix(-1, 0, 0, -1, 805.774994, 361.684006)"/>
  <path class="cls-6" d="M 319.674 170.354 L 329.149 170.354 C 330.806 170.354 332.306 171.863 332.306 173.771 C 332.306 173.771 332.637 179.145 332.637 180.842 C 332.637 182.539 332.306 187.913 332.306 187.913 C 332.306 189.845 330.977 191.33 329.149 191.33 L 319.674 191.33 L 319.674 170.354 Z" style="paint-order: fill; fill: rgba(119, 119, 119, 0.22);" transform="matrix(-1, 0, 0, -1, 652.311005, 361.684006)"/>
  <circle class="cls-7" cx="352.44" cy="135.686" r="2.711" style="paint-order: fill; fill: rgb(108, 99, 255);"/>
  <circle class="cls-7" cx="352.44" cy="146.054" r="2.711" style="paint-order: fill; fill: rgb(108, 99, 255);"/>
  <circle class="cls-7" cx="352.44" cy="156.166" r="2.711" style="paint-order: fill; fill: rgb(108, 99, 255);"/>
  <path class="cls-7" d="M 369.715 132.715 C 367.552 132.769 365.469 133.549 363.801 134.93 C 363.801 134.93 363.541 132.715 360.572 132.715 C 358.818 132.752 357.403 134.167 357.366 135.921 L 357.366 156.166 C 357.403 157.92 358.818 159.333 360.572 159.37 C 362.333 159.344 363.762 157.929 363.801 156.166 L 363.801 149.755 C 365.428 151.2 367.538 151.989 369.715 151.971 C 374.878 151.803 378.943 147.516 378.836 142.355 C 378.893 137.207 374.858 132.944 369.715 132.715 Z M 367.736 147.044 C 365.32 147.035 363.407 145.002 363.541 142.589 C 363.501 140.214 365.361 138.237 367.736 138.135 C 370.152 138.145 372.066 140.179 371.931 142.589 C 372.037 145.014 370.158 147.061 367.736 147.162 L 367.736 147.044 Z" style="paint-order: fill; fill: rgb(108, 99, 255);"/>
  <path class="cls-6" d="M 402.291 218.668 L 327.012 218.668 C 323.854 218.624 321.278 220.735 321.332 223.321 L 321.332 228.782 C 321.278 231.369 323.854 233.477 327.012 233.435 L 402.291 233.435 C 405.449 233.477 408.024 231.369 407.97 228.782 L 407.97 223.321 C 408.011 220.741 405.443 218.638 402.291 218.668 Z" style="paint-order: fill; fill: rgba(119, 119, 119, 0.13);" transform="matrix(-1, 0, 0, -1, 729.302002, 452.102936)"/>
  <path class="cls-6" d="M 409.83 236.7 L 318.784 236.7 C 314.896 236.7 311.926 240.423 311.926 245.278 L 311.926 255.342 C 311.926 260.196 314.896 263.921 318.784 263.921 L 409.83 263.921 C 413.694 263.921 416.689 260.196 416.689 255.342 L 416.689 245.278 C 417.171 241.013 414.096 237.169 409.83 236.7 Z" style="paint-order: fill; fill: rgba(119, 119, 119, 0.13);" transform="matrix(-1, 0, 0, -1, 728.664734, 500.620987)"/>
  <circle class="cls-7" cx="-364.463" cy="180.819" r="12.726" transform="matrix(-1, 0, 0, 1, 0, 0)" style="paint-order: fill; fill: rgba(119, 119, 119, 0.14);"/>
</svg>