<?xml version="1.0" encoding="UTF-8"?>
<svg width="90px" height="90px" viewBox="0 0 90 90" version="1.1" xmlns="http://www.w3.org/2000/svg" xmlns:xlink="http://www.w3.org/1999/xlink">
    <title>plugins</title>
    <g id="Page-1" stroke="none" stroke-width="1" fill="none" fill-rule="evenodd">
        <g id="plugins" transform="translate(0.000000, 0.000000)">
            <path d="M7.8867,41.8315 L33.9487,41.8315 C38.3003,41.82759 41.8276,38.3003 41.8315,33.9487 L41.8315,7.8867 C41.82759,3.5312 38.3003,0.0039 33.9487,-4.97379915e-14 L7.8867,-4.97379915e-14 C3.5312,0.00391 0.0039,3.5312 1.49213975e-13,7.8867 L1.49213975e-13,33.9487 C0.003906,38.3003 3.5312,41.8276 7.8867,41.8315 Z M5,7.8865 C5,6.2927 6.293,4.9998 7.8867,4.9998 L33.9487,4.9998 C35.5385,4.9998 36.8315,6.2928 36.8315,7.8865 L36.8315,33.9485 C36.8315,35.5383 35.5424,36.8313 33.9487,36.8313 L7.8867,36.8313 C6.2929,36.8313 5,35.5383 5,33.9485 L5,7.8865 Z M56.051,41.8315 L82.113,41.8315 C86.4685,41.82759 89.9958,38.3003 89.9997,33.9487 L89.9997,7.8867 C89.99579,3.5312 86.4685,0.0039 82.113,-4.97379915e-14 L56.051,-4.97379915e-14 C51.6994,0.00391 48.1721,3.5312 48.1682,7.8867 L48.1682,33.9487 C48.1721,38.3003 51.6994,41.8276 56.051,41.8315 Z M53.1682,7.8865 C53.1682,6.2927 54.4612,4.9998 56.051,4.9998 L82.113,4.9998 C83.7068,4.9998 84.9997,6.2928 84.9997,7.8865 L84.9997,33.9485 C84.9997,35.5383 83.7067,36.8313 82.113,36.8313 L56.051,36.8313 C54.4612,36.8313 53.1682,35.5383 53.1682,33.9485 L53.1682,7.8865 Z M7.8872,89.9995 L33.9492,89.9995 C38.3008,89.995594 41.8281,86.4683 41.832,82.1128 L41.832,56.0508 C41.82809,51.6992 38.3008,48.1719 33.9492,48.168 L7.8872,48.168 C3.5317,48.17191 0.0044,51.6992 0.0005,56.0508 L0.0005,82.1128 C0.004406,86.4683 3.5317,89.9956 7.8872,89.9995 Z M5.0005,56.0505 C5.0005,54.4607 6.2935,53.1677 7.8872,53.1677 L33.9492,53.1677 C35.543,53.1677 36.832,54.4607 36.832,56.0505 L36.832,82.1125 C36.832,83.7063 35.539,84.9992 33.9492,84.9992 L7.8872,84.9992 C6.2934,84.9992 5.0005,83.7062 5.0005,82.1125 L5.0005,56.0505 Z" id="Fill-1" fill="#4E32C2"></path>
            <line x1="69.08395" y1="56.9070141" x2="69.08395" y2="83.0920582" id="Path-20" stroke="#4E32C2" stroke-width="4" stroke-linecap="round"></line>
            <line x1="69.08395" y1="56.9070141" x2="69.08395" y2="83.0920582" id="Path-20" stroke="#4E32C2" stroke-width="4" stroke-linecap="round" transform="translate(69.083950, 69.999536) rotate(90.000000) translate(-69.083950, -69.999536) "></line>
        </g>
    </g>
</svg>