<svg width="246" height="58" viewBox="0 0 246 58" fill="none" xmlns="http://www.w3.org/2000/svg">
<path d="M3.5 22C5.433 22 7 20.433 7 18.5C7 16.567 5.433 15 3.5 15C1.567 15 0 16.567 0 18.5C0 20.433 1.567 22 3.5 22Z" fill="black"/>
<path d="M3.5 34C5.433 34 7 32.433 7 30.5C7 28.567 5.433 27 3.5 27C1.567 27 0 28.567 0 30.5C0 32.433 1.567 34 3.5 34Z" fill="black"/>
<path d="M3.5 47C5.433 47 7 45.433 7 43.5C7 41.567 5.433 40 3.5 40C1.567 40 0 41.567 0 43.5C0 45.433 1.567 47 3.5 47Z" fill="black"/>
<path d="M35.992 26.192C35.992 33.152 31.672 38.528 24.808 38.528C21.304 38.528 18.808 37.232 17.32 35.024V46.688H9.64V14.336H16.936L16.888 17.36H16.984C18.712 15.296 21.256 13.904 24.856 13.904C31.672 13.904 35.992 19.232 35.992 26.192ZM28.168 26.096C28.168 22.448 25.912 19.952 22.6 19.952C19.336 19.952 17.08 22.448 17.08 26.096C17.08 29.744 19.336 32.24 22.6 32.24C25.912 32.24 28.168 29.744 28.168 26.096ZM47.9886 7.616C47.9886 10.016 46.2126 11.6 43.6206 11.6C41.0286 11.6 39.2526 10.016 39.2526 7.616C39.2526 5.264 41.0286 3.632 43.6206 3.632C46.2126 3.632 47.9886 5.264 47.9886 7.616ZM47.4606 14.336V38H39.7806V14.336H47.4606ZM77.4861 26.24C77.4861 33.872 71.8701 38.528 64.3821 38.528C56.8941 38.528 51.2301 33.872 51.2301 26.24C51.2301 18.608 56.8941 13.904 64.3821 13.904C71.8701 13.904 77.4861 18.608 77.4861 26.24ZM69.7581 26.096C69.7581 22.592 67.7421 19.952 64.3821 19.952C60.9741 19.952 59.0061 22.592 59.0061 26.096C59.0061 29.6 60.9741 32.24 64.3821 32.24C67.7421 32.24 69.7581 29.6 69.7581 26.096ZM97.1999 14.336L96.7679 21.392H96.4319C95.9999 21.152 94.9919 20.816 93.6479 20.816C91.9199 20.816 90.6719 21.776 90.0959 22.544C89.5199 23.312 88.8959 24.848 88.8959 27.488V38H81.2159V14.336H88.8959L88.8479 17.696H88.9439C90.2879 15.104 92.2559 13.904 94.7999 13.904C96.3839 13.904 97.1999 14.336 97.1999 14.336ZM122.307 25.472C122.307 26.624 122.211 28.016 122.211 28.016H105.363C105.699 31.424 108.291 32.96 111.411 32.96C114.483 32.96 117.171 31.616 118.515 30.704L121.539 34.688C120.771 35.264 117.651 38.528 110.307 38.528C103.011 38.528 97.6833 34.016 97.6833 26.192C97.6833 18.368 103.443 13.904 110.451 13.904C117.459 13.904 122.307 18.56 122.307 25.472ZM105.411 23.648H115.155C115.107 21.488 113.523 18.896 110.307 18.896C107.139 18.896 105.507 21.392 105.411 23.648ZM147.057 24.656V38H139.713L139.569 35.504C138.561 36.512 136.641 38.528 132.801 38.528C128.625 38.528 124.209 36.272 124.209 30.992C124.209 25.712 129.057 23.936 133.425 23.744L139.377 23.504V22.976C139.377 20.48 137.601 19.184 134.529 19.184C131.505 19.184 128.481 20.528 127.281 21.296L125.265 16.304C127.281 15.296 130.977 13.904 135.393 13.904C139.809 13.904 142.353 14.912 144.225 16.64C146.049 18.368 147.057 20.672 147.057 24.656ZM139.425 31.472V27.584L135.633 27.824C133.281 27.92 131.889 28.928 131.889 30.704C131.889 32.528 133.377 33.632 135.489 33.632C137.553 33.632 138.945 32.288 139.425 31.472ZM170.098 29.888L171.922 35.696C171.682 35.888 169.186 38.528 162.898 38.528C156.418 38.528 150.418 34.112 150.418 26.24C150.418 18.32 156.514 13.904 162.994 13.904C169.042 13.904 171.778 16.4 171.778 16.4L170.098 22.208C169.426 21.68 167.314 20.096 164.002 20.096C160.738 20.096 158.146 22.352 158.146 26.096C158.146 29.84 160.498 32.192 164.098 32.192C167.698 32.192 170.098 29.888 170.098 29.888ZM189.078 14.384V20.192H183.846V28.688C183.846 30.704 184.134 31.184 184.518 31.616C184.854 32 185.334 32.192 186.342 32.192C187.542 32.192 188.646 31.76 188.646 31.76L189.03 37.76C188.454 37.904 186.342 38.528 183.558 38.528C180.822 38.528 178.998 37.712 177.798 36.32C176.598 34.928 176.118 32.96 176.118 29.36V20.192H172.758V14.384H176.118V7.952H183.846V14.384H189.078ZM216.564 26.24C216.564 33.872 210.948 38.528 203.46 38.528C195.972 38.528 190.308 33.872 190.308 26.24C190.308 18.608 195.972 13.904 203.46 13.904C210.948 13.904 216.564 18.608 216.564 26.24ZM208.836 26.096C208.836 22.592 206.82 19.952 203.46 19.952C200.052 19.952 198.084 22.592 198.084 26.096C198.084 29.6 200.052 32.24 203.46 32.24C206.82 32.24 208.836 29.6 208.836 26.096ZM236.278 14.336L235.846 21.392H235.51C235.078 21.152 234.07 20.816 232.726 20.816C230.998 20.816 229.75 21.776 229.174 22.544C228.598 23.312 227.974 24.848 227.974 27.488V38H220.294V14.336H227.974L227.926 17.696H228.022C229.366 15.104 231.334 13.904 233.878 13.904C235.462 13.904 236.278 14.336 236.278 14.336Z" fill="black"/>
</svg>
