<?xml version="1.0" encoding="UTF-8"?>
<svg width="85px" height="85px" viewBox="0 0 85 85" version="1.1" xmlns="http://www.w3.org/2000/svg" xmlns:xlink="http://www.w3.org/1999/xlink">
    <title>automation</title>
    <g id="Page-1" stroke="none" stroke-width="1" fill="none" fill-rule="evenodd">
        <g id="automation" fill="#4E32C2">
            <path d="M20.586,74.719 C26.7657,78.8323 34.047,81.0002 41.633,80.8713 C48.9728,80.74239 55.953,78.4729 61.867,74.4025 C62.71856,73.81266 63.8865,74.03141 64.4725,74.88297 C65.06234,75.73453 64.8475,76.90247 63.99203,77.49237 C57.47643,81.97677 49.78103,84.476771 41.69903,84.617372 C33.34353,84.765812 25.31603,82.37517 18.50803,77.84007 C17.64475,77.26976 17.41423,76.10567 17.98459,75.24237 C18.55881,74.37909 19.72289,74.14467 20.58619,74.71893 L20.586,74.719 Z M50.133,4.40701 C68.172,8.55931 81.281,24.52801 81.61,43.29401 C81.71938,49.57921 80.3952,55.69201 77.7741,61.26301 C77.33269,62.20051 76.2155,62.60281 75.2819,62.16535 C74.3444,61.72394 73.9421,60.60675 74.37956,59.66925 C76.75846,54.61455 77.96156,49.06725 77.86006,43.35725 C77.56318,26.32625 65.66106,11.83425 49.29406,8.06425 C48.28626,7.83378 47.65346,6.82595 47.88786,5.81815 C48.11833,4.80645 49.12616,4.17755 50.13396,4.40795 L50.133,4.40701 Z M31.824,6.29371 C32.11697,7.2898 31.54666,8.32891 30.5545,8.62181 C14.7695,13.27021 3.8275,27.9498 4.1205,44.6448 C4.21035,49.7659 5.3393,54.7188 7.4174,59.2738 C7.84709,60.21911 7.42912,61.3285 6.48771,61.7582 C5.5463,62.18789 4.43301,61.77383 4.00331,60.82851 C1.71421,55.80901 0.468111,50.34851 0.370511,44.71151 C0.050201,26.31651 12.10051,10.14551 29.49551,5.02351 C30.4877,4.73054 31.53071,5.30085 31.82361,6.29301 L31.824,6.29371 Z" id="Fill-1"></path>
            <path d="M40.375,0.25 C37.2695,0.25 34.75,2.7695 34.75,5.875 C34.75,8.9805 37.2695,11.5 40.375,11.5 C43.4805,11.5 46,8.9805 46,5.875 C46,2.7695 43.4805,0.25 40.375,0.25 Z M40.375,4 C41.4102,4 42.25,4.83984 42.25,5.875 C42.25,6.91016 41.41016,7.75 40.375,7.75 C39.33984,7.75 38.5,6.91016 38.5,5.875 C38.5,4.83984 39.33984,4 40.375,4 Z" id="Fill-2"></path>
            <path d="M11.625,64 C8.5195,64 6,66.5195 6,69.625 C6,72.7305 8.5195,75.25 11.625,75.25 C14.7305,75.25 17.25,72.7305 17.25,69.625 C17.25,66.5195 14.7305,64 11.625,64 Z M11.625,67.75 C12.6602,67.75 13.5,68.58984 13.5,69.625 C13.5,70.66016 12.66016,71.5 11.625,71.5 C10.58984,71.5 9.75,70.66016 9.75,69.625 C9.75,68.58984 10.58984,67.75 11.625,67.75 Z" id="Fill-3"></path>
            <path d="M70.375,64 C67.2695,64 64.75,66.5195 64.75,69.625 C64.75,72.7305 67.2695,75.25 70.375,75.25 C73.4805,75.25 76,72.7305 76,69.625 C76,66.5195 73.4805,64 70.375,64 Z M70.375,67.75 C71.4102,67.75 72.25,68.58984 72.25,69.625 C72.25,70.66016 71.41016,71.5 70.375,71.5 C69.33984,71.5 68.5,70.66016 68.5,69.625 C68.5,68.58984 69.33984,67.75 70.375,67.75 Z" id="Fill-4"></path>
            <path d="M72.207,52.621 C73.11716,52.26162 74.1328,52.66006 74.5664,53.51162 L74.64062,53.67959 L76.73442,59.01159 L82.06642,56.91389 C82.97267,56.55842 83.99222,56.95686 84.42192,57.80842 L84.49614,57.97248 C84.85552,58.87873 84.45708,59.89828 83.60552,60.32798 L83.43755,60.4022 L77.52735,62.7264 C75.98435,63.33578 74.25005,62.62874 73.55465,61.1522 L73.47262,60.9647 L71.14842,55.0506 C70.76951,54.08576 71.24607,52.9998 72.20702,52.6209 L72.207,52.621 Z" id="Fill-5"></path>
            <path d="M28.234,14.082 C27.30822,13.7695 26.7887,12.8125 27.0035,11.8789 L27.05428,11.70702 L28.87458,6.27342 L23.44098,4.45312 C22.5191,4.14453 21.99568,3.18362 22.21048,2.25392 L22.26126,2.08204 C22.56985,1.15626 23.53076,0.63284 24.46046,0.84764 L24.63624,0.89842 L30.65964,2.91792 C32.22994,3.44526 33.10494,5.09762 32.68694,6.67962 L32.62835,6.87493 L30.60885,12.89833 C30.27682,13.8788 29.21435,14.41003 28.23385,14.08193 L28.234,14.082 Z" id="Fill-6"></path>
            <path d="M20.895,83.953 C21.84031,83.71081 22.4262,82.7889 22.2778,81.8475 L22.23874,81.66781 L20.80124,76.12481 L26.34814,74.68731 C27.28955,74.44122 27.87934,73.51931 27.72704,72.57791 L27.69188,72.40213 C27.44579,71.45682 26.52388,70.86693 25.58248,71.01933 L25.4067,71.05449 L19.2544,72.65219 C17.6528,73.06625 16.6646,74.65609 16.9692,76.26159 L17.01608,76.46081 L18.60988,82.60921 C18.8716,83.61311 19.89108,84.21471 20.89508,83.95301 L20.895,83.953 Z" id="Fill-7"></path>
            <path d="M41,36.188 C36.6562,36.188 33.125,39.6919 33.125,44.0005 C33.125,48.3091 36.6602,51.813 41,51.813 C45.3398,51.813 48.875,48.3091 48.875,44.0005 C48.875,39.6919 45.3438,36.188 41,36.188 Z M41,47.907 C38.8281,47.907 37.0625,46.1531 37.0625,44.0008 C37.0625,41.8485 38.8281,40.0946 41,40.0946 C43.1719,40.0946 44.9375,41.8485 44.9375,44.0008 C44.9375,46.1531 43.1719,47.907 41,47.907 Z" id="Fill-8"></path>
            <path d="M65.23,49.824 L60.1323,45.949 C60.27293,44.6092 60.26511,43.3084 60.1323,42.0506 L65.23,38.1756 C66.01906,37.57404 66.2339,36.4842 65.72609,35.6326 L60.78859,27.3357 C60.2964,26.50757 59.27299,26.156 58.37449,26.51148 L52.32369,28.87478 C51.22209,28.08962 50.03849,27.42558 48.79249,26.88648 L47.88233,20.67168 C47.74171,19.71074 46.91358,18.99978 45.93703,18.99978 L36.06203,18.99978 C35.08547,18.99978 34.25733,19.71072 34.11673,20.67168 L33.20657,26.88648 C31.96047,27.42554 30.77687,28.08958 29.67537,28.87478 L23.62457,26.51148 C22.72613,26.15601 21.70267,26.50757 21.21047,27.3357 L16.27297,35.6326 C15.76516,36.48416 15.98,37.574 16.76906,38.1756 L21.86676,42.0506 C21.72613,43.3904 21.73395,44.6912 21.86676,45.949 L16.76906,49.824 C15.98,50.42556 15.76516,51.5154 16.27297,52.367 L21.21047,60.6639 C21.70266,61.49203 22.72607,61.8436 23.62457,61.48812 L29.67537,59.12482 C30.77697,59.90998 31.96057,60.57402 33.20657,61.11312 L34.11673,67.32792 C34.25735,68.28886 35.08548,68.99982 36.06203,68.99982 L45.93703,68.99982 C46.91359,68.99982 47.74173,68.28888 47.88233,67.32792 L48.79249,61.11312 C50.03859,60.57406 51.22219,59.91002 52.32369,59.12482 L58.37449,61.48812 C59.27293,61.84359 60.29639,61.49203 60.78859,60.6639 L65.72609,52.367 C66.2339,51.51544 66.01906,50.4256 65.23,49.824 Z M58.2534,57.2459 L52.7378,55.0897 C52.07764,54.83189 51.3276,54.94517 50.7769,55.39048 C49.4449,56.46078 47.9488,57.30068 46.3355,57.88268 C45.65191,58.12487 45.1636,58.72643 45.0582,59.43738 L44.23398,65.09358 L37.76518,65.09358 L36.94096,59.43738 C36.83549,58.72644 36.34721,58.12488 35.66366,57.88268 C34.05036,57.30065 32.55426,56.46078 31.22226,55.39048 C30.67148,54.94517 29.92146,54.83189 29.26136,55.0897 L23.74576,57.2459 L20.55046,51.8709 L25.17156,48.3592 C25.75359,47.91389 26.03875,47.1912 25.91375,46.4764 C25.62469,44.8084 25.63641,43.1366 25.91375,41.5233 C26.03875,40.80846 25.75359,40.0819 25.17156,39.6405 L20.55046,36.1288 L23.74576,30.7538 L29.26136,32.91 C29.92152,33.16781 30.67156,33.05453 31.22226,32.60922 C32.55426,31.53892 34.05036,30.69902 35.66366,30.11702 C36.34725,29.87483 36.83556,29.27327 36.94096,28.56232 L37.76518,22.90612 L44.23398,22.90612 L45.0582,28.56232 C45.16367,29.27326 45.65195,29.87482 46.3355,30.11702 C47.9488,30.69905 49.4449,31.53892 50.7769,32.60922 C51.32768,33.05453 52.0777,33.16781 52.7378,32.91 L58.2534,30.7538 L61.4487,36.1288 L56.8276,39.6405 C56.24557,40.08191 55.96041,40.8085 56.08541,41.5233 C56.37447,43.1913 56.36275,44.8631 56.08541,46.4764 C55.96041,47.19124 56.24557,47.9178 56.8276,48.3592 L61.4487,51.8709 L58.2534,57.2459 Z" id="Fill-9"></path>
        </g>
    </g>
</svg>