<svg width="121" height="86" viewBox="0 0 121 86" xmlns="http://www.w3.org/2000/svg" class="featureSvg__8YW" stroke="#5332CA" fill="#5332CA" alt="Experiments"><title>interface</title><g stroke="current" fill="none" fill-rule="evenodd"><path stroke-width="6.5" d="M3.25 3.25h114.4v79.3H3.25z"></path><path d="m20.8 60.148 24.267-2.755L70.149 41.54 93.6 32.5v2.328L70.149 44.32 45.067 59.802 20.8 62.4m3.9-.65a4.55 4.55 0 1 1-9.1 0 4.55 4.55 0 0 1 9.1 0m24.7-2.6c0 2.513-2.328 4.55-5.2 4.55-2.872 0-5.2-2.037-5.2-4.55s2.328-4.55 5.2-4.55c2.872 0 5.2 2.037 5.2 4.55m26-16.25a5.2 5.2 0 1 1-10.4 0 5.2 5.2 0 0 1 10.4 0m23.4-9.1a5.2 5.2 0 1 1-10.4 0 5.2 5.2 0 0 1 10.4 0Z" fill="current" fill-rule="nonzero"></path><path stroke-width="3.9" d="M4.742 19.349H114.4"></path><circle stroke-width="2.3" fill="current" cx="11.05" cy="12.35" r="1.3"></circle><circle stroke-width="2.3" fill="current" cx="17.55" cy="12.35" r="1.3"></circle><circle stroke-width="2.3" fill="current" cx="24.05" cy="12.35" r="1.3"></circle><path stroke-width="2.6" d="M11.05 26.679V71.32h95.472"></path></g></svg>