<?xml version="1.0" encoding="UTF-8"?>
<svg width="86px" height="97px" viewBox="0 0 86 97" version="1.1" xmlns="http://www.w3.org/2000/svg" xmlns:xlink="http://www.w3.org/1999/xlink">
    <title>optical_density</title>
    <g id="Page-1" stroke="none" stroke-width="1" fill="none" fill-rule="evenodd">
        <g id="Group-9" transform="translate(2.000000, 3.000000)" stroke="current">
            <path d="M16.7221022,7.30759122 C30.755711,-2.51884741 48.2337409,-1.77084438 55.7603748,8.97830274 C55.8231353,9.06793409 55.8850058,9.1579778 55.9459885,9.24842645 C57.3383505,8.40509361 58.9725254,7.92 60.72,7.92 C65.8231111,7.92 69.96,12.0568889 69.96,17.16 C69.96,22.2631111 65.8231111,26.4 60.72,26.4 C59.9425365,26.4 59.1874999,26.3039795 58.466102,26.1231507 C56.6774326,33.4815635 51.6297166,40.876225 43.9784545,46.2336964 C29.9448457,56.060135 12.4668158,55.312132 4.94018193,44.5629849 C-2.58645191,33.8138377 2.68849348,17.1340299 16.7221022,7.30759122 Z" id="Combined-Shape" stroke-width="6.0192"></path>
            <circle id="Oval" stroke-width="3.32" fill="current" cx="61.38" cy="61.38" r="2.64"></circle>
            <ellipse id="Oval" stroke-width="6.0192" transform="translate(55.440000, 67.320000) rotate(-33.000000) translate(-55.440000, -67.320000) " cx="55.44" cy="67.32" rx="19.4304" ry="14.1504"></ellipse>
            <circle id="Oval" stroke-width="3.32" fill="current" cx="16" cy="39" r="4.34"></circle>
            <ellipse id="Oval" stroke-width="6.0192" transform="translate(16.500000, 67.980000) rotate(34.000000) translate(-16.500000, -67.980000) " cx="16.5" cy="67.98" rx="9.5304" ry="6.8904"></ellipse>
            <circle id="Oval" stroke-width="4.6992" fill="current" cx="73.92" cy="38.28" r="6.3096"></circle>
        </g>
    </g>
</svg>